<svg width="36" height="27" viewBox="0 0 36 27" fill="none" xmlns="http://www.w3.org/2000/svg">
<path d="M32.625 0H3.375C1.51102 0 0 1.51102 0 3.375V23.625C0 25.489 1.51102 27 3.375 27H32.625C34.489 27 36 25.489 36 23.625V3.375C36 1.51102 34.489 0 32.625 0ZM32.625 3.375V6.2441C31.0485 7.52794 28.5351 9.52425 23.1619 13.7317C21.9777 14.6631 19.6321 16.9008 18 16.8747C16.3682 16.9011 14.0218 14.6628 12.8381 13.7317C7.46578 9.52488 4.95176 7.52815 3.375 6.2441V3.375H32.625ZM3.375 23.625V10.5749C4.98614 11.8581 7.27095 13.6589 10.7535 16.3859C12.2903 17.5956 14.9816 20.2662 18 20.2499C21.0035 20.2662 23.6608 17.6344 25.2459 16.3865C28.7284 13.6595 31.0138 11.8583 32.625 10.5749V23.625H3.375Z" fill="black"/>
</svg>
