<svg width="84" height="84" viewBox="0 0 84 84" fill="none" xmlns="http://www.w3.org/2000/svg">
<path d="M61.5944 38.9516L31.7879 20.8306C29.1121 19.3403 25.7419 21.254 25.7419 24.3871V59.6129C25.7419 62.729 29.0952 64.6597 31.7879 63.1694L61.5944 46.0645C64.3718 44.5234 64.3718 40.5097 61.5944 38.9516ZM84 42C84 18.7984 65.2016 0 42 0C18.7984 0 0 18.7984 0 42C0 65.2016 18.7984 84 42 84C65.2016 84 84 65.2016 84 42ZM8.12903 42C8.12903 23.2863 23.2863 8.12903 42 8.12903C60.7137 8.12903 75.871 23.2863 75.871 42C75.871 60.7137 60.7137 75.871 42 75.871C23.2863 75.871 8.12903 60.7137 8.12903 42Z" fill="#C7C7C7"/>
</svg>
