<svg width="191" height="142" viewBox="0 0 191 142" fill="none" xmlns="http://www.w3.org/2000/svg">
<path d="M173.094 0H17.9062C8.01678 0 0 7.94682 0 17.75V124.25C0 134.053 8.01678 142 17.9062 142H173.094C182.983 142 191 134.053 191 124.25V17.75C191 7.94682 182.983 0 173.094 0ZM170.855 124.25H20.1445C19.5509 124.25 18.9816 124.016 18.5618 123.6C18.1421 123.184 17.9062 122.62 17.9062 122.031V19.9688C17.9062 19.3803 18.1421 18.816 18.5618 18.3999C18.9816 17.9838 19.5509 17.75 20.1445 17.75H170.855C171.449 17.75 172.018 17.9838 172.438 18.3999C172.858 18.816 173.094 19.3803 173.094 19.9688V122.031C173.094 122.62 172.858 123.184 172.438 123.6C172.018 124.016 171.449 124.25 170.855 124.25ZM47.75 32.5417C39.509 32.5417 32.8281 39.1643 32.8281 47.3333C32.8281 55.5024 39.509 62.125 47.75 62.125C55.991 62.125 62.6719 55.5024 62.6719 47.3333C62.6719 39.1643 55.991 32.5417 47.75 32.5417ZM35.8125 106.5H155.188V76.9167L122.54 44.5543C120.792 42.8215 117.958 42.8215 116.209 44.5543L71.625 88.75L56.8841 74.1377C55.136 72.4048 52.3015 72.4048 50.5531 74.1377L35.8125 88.75V106.5Z" fill="white"/>
</svg>
