<svg width="27" height="27" viewBox="0 0 27 27" fill="none" xmlns="http://www.w3.org/2000/svg">
<path d="M25.9074 1.78515L25.9067 1.785L20.4228 0.519478L25.9074 1.78515ZM25.9074 1.78515C26.254 1.86464 26.5 2.17317 26.5 2.53177C26.5 15.7814 15.7609 26.5 2.53175 26.5C2.17129 26.5 1.86505 26.2519 1.78498 25.9067L25.9074 1.78515ZM17.2314 7.7588L17.2341 7.76093L20.4297 10.3765L20.7312 10.6232L20.5657 10.9759C18.6183 15.1249 15.217 18.575 10.9809 20.5605L10.6284 20.7257L10.3818 20.4245L7.76635 17.229L17.2314 7.7588ZM17.2314 7.7588C16.9697 7.54753 16.879 7.18118 17.0131 6.86829L19.5434 0.964249C19.5435 0.964019 19.5436 0.963789 19.5437 0.96356M17.2314 7.7588L19.5437 0.96356M19.5437 0.96356C19.6909 0.625284 20.0627 0.4368 20.4225 0.519406L19.5437 0.96356ZM6.87354 17.0078C7.18436 16.8746 7.54783 16.9624 7.7662 17.2288L0.519385 20.4225C0.437301 20.065 0.623155 19.6913 0.969721 19.538C0.970326 19.5378 0.970932 19.5375 0.971538 19.5372L6.87354 17.0078ZM1.78491 25.9064L0.519457 20.4228L1.78491 25.9064Z" fill="black" stroke="black"/>
</svg>
